<svg width="332" height="64" viewBox="0 0 332 64" fill="none" xmlns="http://www.w3.org/2000/svg">
<path d="M51.417 62.8418V25.3125C51.417 23.8184 51.4316 22.2803 51.4609 20.6982C51.5195 19.1162 51.5781 17.666 51.6367 16.3477C51.7246 14.7949 51.7979 13.2861 51.8564 11.8213C51.2412 14.1357 50.6553 16.333 50.0986 18.4131C49.8643 19.292 49.6152 20.2002 49.3516 21.1377C49.0879 22.0752 48.8242 22.9834 48.5605 23.8623C48.3262 24.7412 48.0918 25.5615 47.8574 26.3232C47.623 27.085 47.418 27.7441 47.2422 28.3008L36.0801 62.8418H26.8516L15.6895 28.3008C15.5137 27.7441 15.3086 27.085 15.0742 26.3232C14.8691 25.5615 14.6348 24.7412 14.3711 23.8623C14.1367 22.9834 13.8877 22.0752 13.624 21.1377C13.3604 20.2002 13.0967 19.292 12.833 18.4131C12.2471 16.333 11.6318 14.1357 10.9873 11.8213C11.0752 13.5205 11.1631 15.1904 11.251 16.8311C11.3096 18.2373 11.3682 19.7168 11.4268 21.2695C11.4854 22.8223 11.5146 24.1699 11.5146 25.3125V62.8418H0.000976562V0.922852H17.3594L28.4336 35.5518C28.7266 36.46 29.0342 37.5732 29.3564 38.8916C29.708 40.21 30.0449 41.4844 30.3672 42.7148C30.7188 44.1504 31.0996 45.6445 31.5098 47.1973C31.9199 45.6738 32.3154 44.209 32.6963 42.8027C32.8721 42.1875 33.0479 41.5576 33.2236 40.9131C33.3994 40.2686 33.5752 39.6387 33.751 39.0234C33.9268 38.4082 34.1025 37.8223 34.2783 37.2656C34.4541 36.709 34.6152 36.2109 34.7617 35.7715L45.6602 0.922852H62.9307V62.8418H51.417ZM133.377 31.5967C133.377 36.4307 132.659 40.8252 131.223 44.7803C129.788 48.7354 127.722 52.1191 125.027 54.9316C122.332 57.7441 119.036 59.9121 115.139 61.4355C111.272 62.959 106.892 63.7207 102 63.7207C96.8143 63.7207 92.2732 62.9297 88.3768 61.3477C84.5096 59.7363 81.2723 57.5098 78.6648 54.668C76.0574 51.7969 74.0945 48.3984 72.7762 44.4727C71.4871 40.5469 70.8426 36.2549 70.8426 31.5967C70.8426 26.7627 71.5164 22.3975 72.8641 18.501C74.241 14.6045 76.2478 11.2939 78.8846 8.56934C81.5506 5.81543 84.8172 3.70605 88.6844 2.24121C92.5809 0.74707 97.0486 0 102.088 0C107.127 0 111.58 0.74707 115.447 2.24121C119.344 3.73535 122.61 5.85937 125.247 8.61328C127.913 11.3672 129.934 14.6924 131.311 18.5889C132.688 22.4561 133.377 26.792 133.377 31.5967ZM120.149 31.5967C120.149 28.3447 119.754 25.415 118.963 22.8076C118.201 20.1709 117.058 17.915 115.535 16.04C114.012 14.165 112.122 12.7295 109.866 11.7334C107.639 10.708 105.047 10.1953 102.088 10.1953C99.0701 10.1953 96.4187 10.708 94.1336 11.7334C91.8777 12.7295 89.9881 14.165 88.4646 16.04C86.9412 17.915 85.7986 20.1709 85.0369 22.8076C84.2752 25.415 83.8943 28.3447 83.8943 31.5967C83.8943 34.8193 84.2752 37.7783 85.0369 40.4736C85.8279 43.1396 86.9852 45.4395 88.5086 47.373C90.032 49.3066 91.9217 50.8154 94.1775 51.8994C96.4334 52.9834 99.0408 53.5254 102 53.5254C105.164 53.5254 107.888 52.9834 110.174 51.8994C112.459 50.7861 114.334 49.2627 115.799 47.3291C117.293 45.3662 118.391 43.0518 119.095 40.3857C119.798 37.6904 120.149 34.7607 120.149 31.5967ZM196.308 45.1758C196.308 48.3105 195.678 51.0059 194.419 53.2617C193.159 55.4883 191.43 57.3193 189.233 58.7549C187.065 60.1611 184.531 61.2012 181.63 61.875C178.73 62.5195 175.654 62.8418 172.402 62.8418H141.421V0.922852H169.765C173.427 0.922852 176.679 1.24512 179.521 1.88965C182.392 2.50488 184.809 3.45703 186.772 4.74609C188.735 6.03516 190.214 7.66113 191.211 9.62402C192.236 11.5576 192.749 13.8428 192.749 16.4795C192.749 19.9951 191.767 22.9688 189.804 25.4004C187.871 27.8027 184.912 29.4287 180.927 30.2783C185.937 30.8643 189.746 32.4463 192.353 35.0244C194.99 37.5732 196.308 40.957 196.308 45.1758ZM179.697 18.2373C179.697 15.4541 178.803 13.4766 177.016 12.3047C175.258 11.1328 172.636 10.5469 169.15 10.5469H154.384V25.8838H169.238C172.9 25.8838 175.551 25.2539 177.192 23.9941C178.862 22.7051 179.697 20.7861 179.697 18.2373ZM183.3 44.165C183.3 42.5244 182.978 41.1475 182.334 40.0342C181.689 38.9209 180.796 38.0273 179.653 37.3535C178.54 36.6797 177.221 36.1963 175.698 35.9033C174.204 35.6104 172.578 35.4639 170.82 35.4639H154.384V53.2178H171.303C173.003 53.2178 174.585 53.0859 176.049 52.8223C177.514 52.5293 178.774 52.0459 179.829 51.3721C180.913 50.6689 181.762 49.7314 182.378 48.5596C182.993 47.3877 183.3 45.9229 183.3 44.165ZM204.66 62.8418V0.922852H217.623V62.8418H204.66ZM227.908 62.8418V0.922852H240.872V52.8223H274.095V62.8418H227.908ZM281.128 62.8418V0.922852H329.819V10.9424H294.092V26.499H327.139V36.5186H294.092V52.8223H331.621V62.8418H281.128Z" fill="white"/>
</svg>
